<?xml version="1.0" encoding="utf-8"?>
<!-- Generator: Adobe Illustrator 20.0.0, SVG Export Plug-In . SVG Version: 6.00 Build 0)  -->
<svg version="1.1" id="Icons" xmlns="http://www.w3.org/2000/svg" xmlns:xlink="http://www.w3.org/1999/xlink" x="0px" y="0px"
	 viewBox="0 0 288 288" style="enable-background:new 0 0 288 288;" xml:space="preserve">
<style type="text/css">
	.st0{fill:none;}
	.st1{fill:#CDB498;}
	.st2{fill:#DAC7B3;}
	.st3{fill:#BDAE9D;}
	.st4{fill:#B29D86;}
	.st5{fill:#AAC3CF;}
	.st6{fill:#CAD9DE;}
	.st7{fill:#F29111;}
	.st8{fill:#FFFFFF;}
</style>
<g>
	<rect class="st0" width="288" height="288"/>
	<g>
		<g>
			<path d="M183,93.4c0,0,0-0.1,0-0.1c0-0.1,0-0.2,0-0.2c0-26.9-13.6-39.3-33.3-39.3l-4.5-5.7C126.8,48,105,59.9,105,90
				c0,16.4,8.2,38.9,39,39v3h30C179.8,122.3,182.9,104.9,183,93.4C183,93.4,183,93.4,183,93.4z"/>
			<path class="st1" d="M144,153v-37h-15v19.1c0,3.6-2.1,6.8-5.4,8.2l-0.5,0.2C123.7,144.6,129.7,153,144,153z"/>
			<path class="st2" d="M164.9,143.6l-0.5-0.2c-3.3-1.4-5.4-4.7-5.4-8.2V116h-15v37C158.3,153,164.3,144.6,164.9,143.6z"/>
			<g>
				<path class="st3" d="M159,120v-4h-15v25.2C150,137.2,155.4,130.7,159,120z"/>
			</g>
			<g>
				<path class="st4" d="M129,116v19.1c0,3.6-2.1,6.8-5.4,8.2l-0.5,0.2c0.2,0.4,1.2,1.7,3,3.3c5-0.3,10.7-1.5,16.1-4.6
					c0.6-0.3,1.2-0.7,1.8-1.1V116H129z"/>
			</g>
			<path class="st2" d="M162,93h-5c-13.7,0-24.9-11.1-25-24.8c-11.2,4.8-11.8,16-12,19.5c0,0-1.6,35,14.9,44.5c0,0-0.1,0-0.1,0
				c8.5,5,17.8,0.6,18.9,0c11.6-6.5,13.9-23.9,14.2-33.8C167.6,95.3,165.1,93,162,93z"/>
			<path class="st1" d="M143.3,117.9c1.1-2.1,1.1-4,0.8-4.6c-1.4-2.1-4-0.5-4.6-3.7c-0.2-1.2,1.8-5,2.5-8.1c0.6-2.8,0.7-5,0.4-6.8
				c-0.9-4.2-4.7-6.8-7.9-7.5c-6.2-1.3-12,3.1-14.5,5.6c0,0,0,0.1,0,0.1c-3.2,0.5-5.5,3.5-5.1,6.8l0.9,6.4c0.5,3.8,3.4,6.8,7.1,7.5
				c2.1,7.6,5.8,14.7,12,18.3c0,0-0.1,0-0.1,0c3.1,1.8,6.3,2.4,9.1,2.4c0.4-1.9,0.5-4.8-0.3-7.2c-0.1-0.3-0.1-0.5-0.2-0.8
				c-1.1-3.3,0.7-4.3,1.2-5.1C146.1,118.9,141.8,121,143.3,117.9z"/>
		</g>
		<path class="st5" d="M144,219v-66c-14.3,0-20.3-8.4-20.9-9.4l-30,13.1c-7.5,3.3-13,10.1-14.5,18.2L70,219H144z"/>
		<path class="st6" d="M218,219l-8.5-44.1c-1.6-8.1-7-14.9-14.5-18.2l-30-13.1c-0.6,1-6.6,9.4-20.9,9.4v66H218z"/>
		<g>
			<g>
				<g>
					<path class="st7" d="M192,237c0,1.6-1.4,3-3,3H99c-1.7,0-3-1.4-3-3v-60c0-1.6,1.3-3,3-3h90c1.6,0,3,1.4,3,3V237z"/>
				</g>
			</g>
			<g>
				<g>
					<g>
						<path class="st8" d="M152.6,191.9c0.2-0.5-0.1-0.9-0.6-0.9h-4c-0.6,0-1.2,0.4-1.4,0.9l-11.3,30.1c-0.2,0.5,0.1,0.9,0.6,0.9h4
							c0.6,0,1.2-0.4,1.4-0.9L152.6,191.9z"/>
						<path class="st8" d="M180.3,202.8L160,191.6c-0.4-0.2-1,0.1-1,0.6v4.9c0,0.5,0.3,0.9,0.7,1.2l15.2,8.5l-15.2,9
							c-0.4,0.2-0.7,0.7-0.7,1.1v5c0,0.5,0.6,0.8,1,0.6l20.3-11.9c0.4-0.2,0.7-0.7,0.7-1.1V204C181,203.5,180.7,203.1,180.3,202.8z"
							/>
						<path class="st8" d="M107.7,211.1l20.3,11.3c0.4,0.2,1-0.1,1-0.6v-4.9c0-0.5-0.3-0.9-0.7-1.2l-15.2-8.5l15.2-9
							c0.4-0.2,0.7-0.7,0.7-1.1v-5c0-0.5-0.6-0.8-1-0.6l-20.3,11.9c-0.4,0.2-0.7,0.7-0.7,1.1v5.3C107,210.4,107.3,210.9,107.7,211.1
							z"/>
					</g>
				</g>
			</g>
		</g>
	</g>
</g>
</svg>
